<?xml version="1.0" standalone="no"?>
<!DOCTYPE svg PUBLIC "-//W3C//DTD SVG 20010904//EN"
 "http://www.w3.org/TR/2001/REC-SVG-20010904/DTD/svg10.dtd">
<svg version="1.0" xmlns="http://www.w3.org/2000/svg"
 width="2048.000000pt" height="2048.000000pt" viewBox="0 0 2048.000000 2048.000000"
 preserveAspectRatio="xMidYMid meet">

<g transform="translate(0.000000,2048.000000) scale(0.100000,-0.100000)"
fill="#000000" stroke="none">
<path d="M10260 15162 c-132 -45 -196 -90 -266 -190 -103 -146 -221 -275 -721
-786 -284 -289 -298 -309 -298 -431 0 -103 21 -142 163 -301 58 -66 151 -174
208 -242 l102 -123 -15 -30 c-38 -76 -7 -244 66 -356 136 -210 350 -267 691
-184 154 38 264 48 345 31 33 -7 114 -37 180 -67 176 -80 241 -96 410 -97 158
0 226 13 359 72 l80 34 19 -23 c30 -38 96 -175 134 -279 43 -120 153 -504 192
-675 85 -371 148 -848 154 -1170 2 -122 -1 -141 -40 -312 -112 -477 -155 -891
-133 -1278 15 -279 59 -555 119 -743 l20 -64 -22 6 c-12 3 -49 6 -82 6 l-60 1
-45 60 c-188 254 -549 465 -945 553 -187 42 -286 51 -525 50 -394 -1 -674 -61
-1043 -222 -119 -53 -313 -156 -376 -202 -23 -16 -26 -15 -100 27 -422 242
-924 400 -1463 460 -214 23 -675 23 -893 -1 -309 -34 -784 -130 -1010 -205
-107 -35 -136 -112 -71 -188 20 -24 32 -28 73 -27 26 0 98 15 158 33 231 69
545 132 830 167 167 21 617 30 785 15 394 -34 717 -108 1070 -246 136 -53 374
-166 384 -184 3 -5 -18 -28 -46 -51 -128 -102 -237 -211 -249 -249 -15 -51 8
-103 57 -126 55 -26 86 -13 186 81 327 306 816 565 1233 654 230 49 484 64
700 40 499 -54 898 -253 1086 -540 77 -118 80 -121 115 -136 27 -11 42 -12 76
-3 108 29 234 20 286 -22 68 -53 183 18 169 105 -3 17 -28 96 -56 176 -56 162
-90 307 -121 515 -27 177 -37 542 -21 740 14 181 62 528 71 518 4 -4 24 -71
44 -148 21 -77 53 -192 72 -256 32 -108 34 -126 34 -255 0 -680 190 -1396 487
-1839 90 -134 221 -279 331 -367 61 -48 80 -58 112 -58 73 0 127 75 102 141
-6 14 -46 56 -90 92 -79 66 -191 190 -249 277 -221 328 -388 815 -448 1304
-32 260 -36 628 -11 957 14 179 18 580 7 764 -18 301 -66 656 -129 962 l-28
133 54 15 c30 9 56 15 57 13 2 -2 24 -73 48 -158 213 -733 434 -1447 597
-1925 308 -904 346 -1093 370 -1815 6 -184 15 -377 19 -429 8 -89 10 -96 40
-123 47 -42 102 -39 148 7 34 34 35 37 30 93 -4 31 -11 188 -16 347 -19 559
-30 689 -77 950 -41 234 -97 428 -269 940 -172 513 -225 679 -374 1165 -121
399 -301 997 -301 1003 0 3 8 7 18 10 412 116 562 157 574 157 9 0 20 -17 27
-40 16 -53 205 -493 316 -735 451 -983 528 -1164 656 -1545 145 -427 223 -776
319 -1420 52 -346 108 -671 172 -990 52 -261 61 -321 62 -420 1 -107 -1 -119
-27 -172 -15 -31 -42 -69 -60 -84 -33 -28 -466 -243 -681 -339 -284 -125 -376
-154 -1216 -379 -195 -52 -418 -113 -495 -135 -967 -273 -1518 -361 -2182
-348 -610 12 -1209 125 -1875 353 -166 57 -566 213 -693 270 l-40 18 75 8
c302 30 750 111 1028 184 251 66 547 178 583 220 57 67 4 174 -87 174 -17 0
-71 -17 -120 -39 -215 -93 -593 -196 -919 -250 -340 -57 -689 -101 -927 -117
-77 -5 -101 -10 -118 -26 -46 -43 -50 -116 -7 -156 12 -12 83 -50 157 -85
l134 -64 -79 -18 c-229 -50 -529 -151 -794 -267 -75 -33 -145 -62 -155 -65
-24 -8 53 105 260 382 240 322 480 601 768 895 339 346 446 492 562 763 19 43
34 90 34 103 0 40 -27 80 -66 99 -31 14 -43 15 -75 6 -43 -13 -67 -43 -94
-116 -47 -129 -154 -304 -269 -440 -37 -44 -163 -179 -280 -300 -340 -352
-514 -553 -740 -850 -202 -266 -315 -431 -509 -741 -86 -137 -107 -178 -107
-208 0 -48 23 -82 66 -96 58 -19 94 -6 156 58 120 123 515 321 918 460 127 44
374 106 579 147 74 15 144 30 155 35 14 5 41 -2 86 -22 269 -123 901 -322
1255 -397 729 -154 1389 -176 2120 -70 298 43 777 152 1185 269 206 59 609
169 970 264 394 103 594 169 845 278 141 61 612 293 672 331 162 101 245 282
230 497 -7 95 -38 274 -91 523 -42 196 -81 425 -131 767 -44 302 -97 619 -131
788 -44 220 -140 580 -207 777 -137 403 -190 528 -642 1515 -362 791 -517
1177 -751 1872 -62 186 -127 370 -144 409 -75 177 -212 360 -416 559 -272 264
-498 421 -1289 894 -236 142 -495 297 -575 345 -80 48 -170 97 -200 110 -75
32 -195 38 -270 13z m320 -289 c74 -44 284 -168 465 -275 825 -487 1141 -701
1398 -947 158 -152 268 -293 339 -436 37 -75 224 -623 215 -632 -10 -9 -552
-163 -562 -159 -6 2 -21 37 -34 77 -43 132 -57 158 -98 175 -46 20 -89 12
-125 -23 -36 -35 -36 -66 2 -195 17 -56 27 -105 23 -109 -14 -13 -266 -80
-279 -75 -8 3 -14 11 -14 18 -1 27 -71 184 -110 244 -53 81 -127 149 -176 163
-69 19 -110 13 -197 -28 -111 -54 -183 -71 -295 -71 -114 0 -175 15 -326 80
-64 27 -144 58 -178 68 -134 41 -285 37 -488 -14 -74 -19 -133 -27 -200 -28
-87 -1 -100 2 -155 29 -73 36 -119 93 -134 165 -6 29 -9 55 -7 59 3 4 37 0 76
-10 39 -10 105 -21 146 -25 74 -7 78 -9 140 -61 78 -66 117 -83 193 -83 64 0
171 29 211 57 19 14 45 18 105 18 98 1 117 10 363 171 95 63 176 114 181 114
4 0 31 -28 60 -62 273 -325 682 -433 1005 -266 136 71 183 137 152 213 -15 36
-59 65 -98 65 -13 0 -48 -19 -78 -41 -181 -137 -406 -140 -611 -8 -129 84
-231 202 -373 431 l-66 108 20 32 c48 79 5 168 -81 168 -28 0 -58 -9 -87 -26
-44 -26 -46 -26 -59 -8 -8 11 -23 51 -35 89 -11 39 -30 80 -42 93 -52 54 -144
29 -167 -46 -10 -35 -8 -49 15 -118 14 -44 26 -82 26 -86 0 -4 -39 -19 -87
-34 -104 -31 -143 -64 -143 -120 0 -19 5 -44 11 -56 15 -28 73 -50 113 -43 30
6 35 3 54 -29 44 -74 92 -68 188 25 34 32 66 59 72 59 8 0 105 -150 100 -155
-23 -18 -397 -249 -409 -252 -11 -3 -52 26 -116 85 -141 129 -403 398 -403
415 0 20 86 160 282 461 92 142 171 269 174 282 8 33 -13 90 -43 114 -36 28
-104 27 -137 -2 -13 -13 -62 -84 -109 -158 -46 -74 -136 -216 -199 -315 -168
-262 -182 -293 -183 -385 0 -58 5 -84 22 -115 12 -22 112 -130 222 -240 111
-110 201 -203 201 -206 0 -4 -14 -9 -31 -13 -30 -6 -45 8 -360 316 -181 177
-329 329 -329 338 0 30 160 241 440 580 161 196 210 259 220 284 27 71 -28
151 -104 151 l-44 0 29 33 c16 17 50 65 77 105 46 67 109 124 164 147 12 5 48
9 78 7 49 -3 71 -12 190 -84z m-742 -454 c-337 -412 -451 -560 -489 -634 -38
-74 -40 -85 -36 -140 l5 -60 -48 55 c-56 63 -75 100 -66 133 3 12 61 83 129
157 145 158 570 590 581 590 3 0 -31 -45 -76 -101z m-158 -1239 c0 -19 -40 5
-72 43 -57 70 -55 75 10 19 34 -30 62 -58 62 -62z m3455 -950 c29 -80 67 -181
84 -224 18 -43 28 -82 24 -86 -8 -7 -312 -94 -872 -249 -140 -39 -257 -68
-261 -66 -4 3 -10 22 -13 42 -5 30 -82 321 -104 394 -4 13 16 22 94 44 106 29
872 259 938 281 22 7 44 12 48 11 5 -2 33 -68 62 -147z m-923 -865 c29 -106
98 -507 124 -725 19 -165 35 -579 25 -655 -5 -33 -9 -52 -10 -42 -1 22 -78
257 -90 275 -5 8 -2 30 6 55 12 33 14 70 8 167 -13 246 -44 521 -91 792 -14
81 -22 153 -19 158 12 20 38 6 47 -25z"/>
<path d="M11940 7542 c-30 -15 -38 -27 -60 -92 -33 -96 -49 -124 -109 -200
-203 -253 -634 -480 -1091 -574 -190 -39 -365 -56 -570 -57 -213 0 -321 11
-511 52 -342 74 -619 207 -836 402 -70 62 -90 72 -138 63 -80 -15 -113 -120
-57 -182 86 -96 291 -236 474 -324 210 -100 514 -188 714 -207 35 -3 64 -9 64
-12 0 -4 -13 -12 -29 -18 -80 -30 -86 -149 -9 -189 15 -8 53 -14 85 -14 89 0
318 -27 429 -50 140 -29 295 -71 706 -193 382 -113 624 -171 888 -211 301 -46
578 -60 645 -32 67 28 85 113 36 168 l-29 33 -194 7 c-423 15 -765 86 -1523
318 -88 27 -223 65 -300 83 -125 31 -190 44 -385 76 -53 8 -50 9 45 10 176 2
473 43 635 87 324 89 481 151 675 267 273 162 437 316 535 499 37 68 70 162
70 195 0 37 -27 81 -60 98 -37 19 -57 19 -100 -3z"/>
<path d="M12260 6993 c-8 -3 -39 -28 -69 -55 -192 -175 -447 -296 -763 -363
-113 -24 -157 -80 -124 -159 21 -51 2 -43 471 -206 152 -52 382 -112 550 -141
157 -28 460 -33 585 -10 89 16 239 64 275 87 53 35 54 142 2 179 -30 21 -96
19 -148 -4 -144 -64 -413 -79 -662 -37 -198 34 -562 130 -590 156 -5 4 18 18
50 30 166 66 323 158 464 272 87 69 109 99 109 143 0 77 -80 135 -150 108z"/>
</g>
</svg>
