<?xml version="1.0" standalone="no"?>
<!DOCTYPE svg PUBLIC "-//W3C//DTD SVG 20010904//EN"
 "http://www.w3.org/TR/2001/REC-SVG-20010904/DTD/svg10.dtd">
<svg version="1.0" xmlns="http://www.w3.org/2000/svg"
 width="2048.000000pt" height="2048.000000pt" viewBox="0 0 2048.000000 2048.000000"
 preserveAspectRatio="xMidYMid meet">

<g transform="translate(0.000000,2048.000000) scale(0.100000,-0.100000)"
fill="#000000" stroke="none">
<path d="M11774 15166 c-17 -8 -35 -26 -42 -42 -6 -16 -13 -126 -17 -244 -9
-296 -21 -451 -45 -583 -40 -209 -109 -511 -204 -890 -52 -209 -92 -386 -89
-395 13 -38 46 -62 85 -62 74 0 73 -4 206 536 67 269 125 509 130 534 l8 45
19 -35 c74 -142 232 -320 390 -440 270 -205 589 -348 1087 -485 205 -57 416
-100 888 -180 443 -75 581 -106 808 -175 269 -83 455 -171 646 -304 611 -427
1075 -1390 1192 -2476 13 -121 18 -250 18 -482 1 -174 -2 -320 -6 -323 -18
-18 -454 163 -740 306 -300 150 -591 325 -838 504 -371 268 -787 684 -999 999
-57 84 -83 106 -124 106 -37 0 -87 -49 -87 -85 0 -81 399 -559 666 -798 195
-176 501 -415 632 -495 37 -22 36 -23 -23 -42 -178 -57 -350 -202 -461 -390
-80 -135 -96 -185 -215 -685 -120 -498 -384 -909 -774 -1201 -483 -363 -1121
-483 -1721 -324 -410 109 -781 343 -1051 665 -309 366 -499 819 -558 1330 -23
203 -23 202 -52 225 -46 36 -113 18 -134 -37 -20 -53 41 -452 106 -687 42
-154 85 -265 170 -441 120 -247 263 -446 464 -645 362 -358 816 -576 1331
-640 123 -15 411 -12 542 5 707 93 1319 524 1643 1155 118 231 167 374 250
733 30 132 59 245 63 253 6 12 24 -3 72 -61 l63 -77 -32 -71 c-57 -125 -216
-533 -314 -802 -201 -554 -456 -1367 -602 -1920 -74 -280 -155 -622 -155 -652
0 -11 9 -32 20 -46 45 -56 130 -39 150 31 5 20 28 112 50 204 215 910 609
2125 997 3076 3 6 9 12 14 12 4 0 85 -92 179 -204 93 -112 177 -207 186 -210
76 -29 151 56 108 122 -9 15 -49 65 -89 112 -39 47 -138 168 -220 270 -82 102
-193 238 -247 303 l-99 118 57 74 c60 80 104 120 196 179 64 40 206 91 284
101 49 7 54 5 176 -63 187 -105 481 -250 673 -332 217 -93 501 -200 531 -200
12 0 35 10 50 23 25 22 28 30 35 138 35 526 -1 1004 -110 1486 -128 561 -369
1110 -656 1495 -415 556 -893 814 -1795 971 -113 20 -310 54 -438 77 -287 49
-527 100 -692 146 -830 233 -1292 567 -1420 1026 -30 109 -34 207 -20 512 7
151 9 287 6 301 -6 24 -58 65 -81 65 -5 -1 -24 -7 -41 -14z"/>
<path d="M8593 15144 l-25 -25 8 -162 c5 -89 9 -263 9 -387 -1 -220 -1 -227
-29 -310 -35 -106 -65 -167 -124 -250 -157 -222 -416 -408 -797 -570 -310
-132 -776 -246 -1446 -354 -759 -123 -1204 -284 -1553 -564 -94 -75 -267 -250
-349 -352 -467 -583 -776 -1453 -838 -2360 -13 -188 -6 -710 10 -790 10 -51
40 -80 81 -80 32 0 349 119 534 200 194 84 470 220 640 315 l159 88 71 -13
c197 -35 351 -130 462 -286 l46 -64 -63 -77 c-35 -43 -176 -214 -314 -381
-291 -352 -295 -357 -295 -389 0 -37 51 -83 92 -83 41 0 96 56 278 284 123
154 125 155 138 130 39 -74 282 -728 417 -1124 215 -625 488 -1560 607 -2075
25 -113 54 -155 105 -155 35 0 71 24 83 55 11 30 -51 304 -181 787 -205 765
-670 2140 -884 2614 l-33 71 59 74 c33 41 63 75 68 77 5 2 26 -68 46 -155 128
-551 196 -736 371 -1009 316 -494 807 -836 1371 -955 501 -105 1016 -39 1478
191 201 100 369 218 526 368 459 440 720 1018 784 1734 7 77 7 78 -23 108 -32
32 -54 36 -97 20 -34 -13 -51 -56 -59 -155 -15 -175 -68 -444 -116 -595 -241
-744 -797 -1296 -1486 -1475 -348 -91 -710 -94 -1047 -9 -338 84 -678 282
-922 535 -169 176 -266 316 -375 542 -88 181 -127 301 -195 587 -64 269 -110
416 -166 520 -119 220 -299 373 -517 436 -7 2 31 34 85 70 399 272 734 580
1027 945 129 161 206 275 206 306 0 34 -51 83 -87 83 -42 0 -65 -20 -139 -126
-220 -317 -610 -703 -989 -980 -325 -238 -792 -500 -1205 -675 -186 -80 -368
-144 -377 -135 -15 15 -7 609 10 766 136 1234 649 2221 1365 2624 283 160 638
262 1292 371 486 82 710 129 980 206 694 200 1179 514 1370 889 29 56 28 58
75 -155 20 -88 77 -320 126 -515 98 -386 104 -400 170 -400 41 0 64 14 78 48
11 26 2 71 -78 388 -92 367 -184 766 -220 955 -14 76 -23 185 -31 380 -14 374
-17 397 -45 425 -33 33 -87 32 -122 -2z"/>
<path d="M9180 14665 c-15 -16 -23 -36 -22 -57 3 -69 161 -604 305 -1033 219
-650 510 -1427 544 -1452 9 -7 33 -13 53 -13 44 0 83 36 83 78 0 15 -27 97
-61 182 -110 281 -303 816 -458 1274 -75 222 -187 588 -254 836 -53 192 -64
210 -129 210 -27 0 -44 -7 -61 -25z"/>
<path d="M11176 14668 c-20 -18 -34 -53 -61 -153 -130 -477 -359 -1161 -654
-1951 -72 -193 -131 -364 -131 -381 0 -64 94 -103 140 -57 20 20 54 104 207
514 251 671 481 1363 603 1812 38 137 42 160 31 186 -22 53 -92 68 -135 30z"/>
<path d="M6893 12872 c-54 -8 -82 -97 -45 -141 34 -41 570 -251 842 -329 435
-126 697 -182 1180 -252 263 -38 398 -83 549 -180 105 -68 189 -144 267 -242
57 -71 89 -87 137 -69 36 14 62 67 49 101 -16 43 -98 143 -176 217 -126 120
-286 217 -452 273 -85 29 -147 41 -474 91 -354 53 -726 137 -1045 234 -225 68
-609 211 -720 268 -50 25 -84 34 -112 29z"/>
<path d="M13420 12818 c-518 -223 -1156 -395 -1825 -492 -346 -49 -505 -106
-699 -249 -149 -110 -296 -277 -296 -336 0 -54 55 -98 106 -85 14 4 58 46 103
99 89 103 214 204 331 264 115 60 255 100 443 127 449 64 787 136 1177 251
298 87 821 284 868 326 33 30 30 81 -7 118 -40 39 -64 37 -201 -23z"/>
<path d="M7073 8311 c-92 -31 -160 -94 -207 -191 -28 -59 -31 -74 -31 -160 0
-84 3 -103 29 -157 34 -74 112 -153 183 -185 70 -32 236 -32 307 0 132 61 226
203 226 342 0 156 -115 311 -263 355 -68 20 -180 19 -244 -4z m202 -170 c47
-22 99 -74 114 -114 26 -69 0 -172 -53 -215 -15 -11 -47 -28 -71 -38 -122 -46
-258 54 -258 191 0 138 145 233 268 176z"/>
<path d="M13147 8311 c-152 -50 -247 -186 -247 -351 0 -116 26 -178 110 -262
58 -59 75 -69 139 -88 191 -59 380 20 461 193 52 109 48 225 -13 340 -61 116
-166 179 -307 184 -63 2 -100 -2 -143 -16z m198 -170 c72 -32 125 -114 125
-191 -1 -40 -34 -103 -73 -137 -62 -54 -146 -65 -218 -28 -56 29 -109 114
-109 175 0 37 24 94 53 127 60 69 145 89 222 54z"/>
<path d="M9640 7016 c-397 -137 -743 -347 -1001 -606 -255 -256 -422 -575
-446 -852 -5 -62 -4 -68 20 -92 30 -30 75 -34 112 -10 29 19 32 28 51 129 44
235 141 427 315 624 243 275 599 500 1021 646 58 20 111 45 121 56 25 31 22
91 -5 116 -39 36 -58 34 -188 -11z"/>
<path d="M10655 7025 c-30 -29 -33 -83 -7 -113 9 -12 73 -41 147 -67 351 -125
684 -325 904 -544 227 -227 350 -444 403 -706 25 -124 43 -147 107 -143 34 2
48 9 64 30 19 26 20 32 8 109 -81 531 -521 1021 -1190 1324 -141 64 -342 135
-383 135 -17 0 -39 -10 -53 -25z"/>
<path d="M13690 6693 c-8 -3 -78 -56 -155 -118 -77 -61 -219 -174 -315 -250
-96 -76 -184 -149 -197 -161 -26 -26 -31 -88 -9 -117 20 -25 68 -40 98 -28 34
13 673 525 682 546 27 70 -40 153 -104 128z"/>
<path d="M6705 6664 c-24 -26 -32 -65 -19 -98 9 -23 541 -461 654 -539 36 -25
68 -21 101 12 31 32 39 82 16 112 -7 9 -142 121 -302 249 -159 128 -305 246
-323 262 -44 37 -93 38 -127 2z"/>
<path d="M10195 6648 c-45 -26 -44 -24 -45 -451 0 -274 4 -415 11 -429 6 -11
26 -26 44 -34 39 -16 69 -8 99 25 19 21 20 38 17 433 -1 226 -5 417 -8 425 -7
17 -55 43 -80 43 -10 0 -27 -6 -38 -12z"/>
<path d="M6645 6095 c-41 -40 -34 -79 33 -173 252 -356 418 -578 438 -586 32
-12 63 -5 93 20 53 44 45 71 -66 225 -53 74 -155 215 -226 314 -71 99 -138
190 -150 203 -29 31 -90 30 -122 -3z"/>
<path d="M13722 6113 c-7 -3 -35 -37 -62 -76 -27 -40 -97 -137 -156 -217 -175
-237 -253 -347 -265 -374 -17 -36 4 -80 47 -101 54 -25 80 -11 154 86 98 127
406 561 413 582 9 24 -16 83 -41 96 -21 11 -67 13 -90 4z"/>
</g>
</svg>
