<?xml version="1.0" standalone="no"?>
<!DOCTYPE svg PUBLIC "-//W3C//DTD SVG 20010904//EN"
 "http://www.w3.org/TR/2001/REC-SVG-20010904/DTD/svg10.dtd">
<svg version="1.0" xmlns="http://www.w3.org/2000/svg"
 width="2048.000000pt" height="2048.000000pt" viewBox="0 0 2048.000000 2048.000000"
 preserveAspectRatio="xMidYMid meet">

<g transform="translate(0.000000,2048.000000) scale(0.100000,-0.100000)"
fill="#000000" stroke="none">
<path d="M7915 16205 c-14 -13 -25 -32 -25 -42 0 -145 -13 -380 -25 -458 -37
-241 -99 -420 -267 -770 -241 -502 -271 -583 -388 -1055 -121 -491 -154 -607
-267 -945 -220 -657 -318 -1088 -379 -1665 -22 -213 -27 -858 -9 -1065 48
-527 153 -1160 304 -1837 17 -75 38 -201 46 -280 67 -613 214 -1213 505 -2048
202 -581 265 -798 305 -1043 26 -163 40 -187 112 -187 63 0 93 32 93 99 0 117
-79 462 -169 740 l-49 154 66 -65 c144 -139 255 -218 309 -218 43 0 100 52
144 130 l30 55 -5 -95 c-6 -114 -25 -190 -71 -289 -19 -40 -35 -84 -35 -97 0
-29 30 -46 73 -42 29 3 36 10 74 88 87 174 114 409 74 640 -12 69 -29 168 -37
220 -21 138 -32 175 -174 600 -231 690 -352 1150 -454 1725 -96 539 -146 1164
-146 1815 0 446 22 816 75 1250 23 186 27 204 93 400 38 113 72 198 75 190 3
-8 10 -91 17 -185 29 -434 110 -888 235 -1320 67 -231 198 -621 383 -1142 311
-873 452 -1448 517 -2112 18 -181 32 -515 40 -936 3 -165 10 -343 15 -395 13
-137 74 -433 110 -542 38 -113 139 -323 176 -361 34 -37 81 -35 103 5 15 25
12 32 -63 177 -42 83 -74 151 -71 151 4 0 27 -18 53 -39 59 -49 119 -81 153
-81 14 0 52 18 83 40 41 29 56 35 52 23 -91 -299 -141 -599 -153 -925 -5 -144
-4 -170 10 -192 40 -60 144 -51 171 16 8 21 16 100 20 213 9 272 51 525 133
800 179 600 233 966 218 1475 -5 191 -28 607 -40 715 -2 24 18 146 51 310 73
364 146 799 180 1085 7 61 9 53 21 -112 22 -312 71 -668 145 -1060 l32 -168
-25 -287 c-20 -247 -24 -348 -24 -703 0 -347 3 -437 18 -550 43 -311 95 -544
223 -989 64 -222 112 -439 135 -601 18 -129 40 -160 114 -160 47 0 95 44 95
88 0 59 -50 325 -94 500 -39 156 -65 245 -136 475 -18 55 -12 77 10 37 19 -36
161 -149 195 -156 41 -7 67 7 165 85 41 33 76 56 78 52 5 -16 -53 -133 -111
-225 -31 -50 -57 -94 -57 -98 0 -16 49 -58 67 -58 27 1 56 28 102 98 101 151
168 348 191 563 6 57 13 111 16 121 24 80 36 276 44 713 13 657 39 968 115
1350 102 513 217 880 576 1835 379 1012 527 1605 609 2459 27 275 33 321 38
291 34 -230 145 -709 221 -962 100 -330 178 -820 212 -1338 20 -298 0 -766
-46 -1105 -110 -798 -316 -1476 -780 -2560 -140 -326 -255 -648 -281 -782 -38
-200 7 -450 103 -563 29 -35 71 -40 98 -10 21 24 18 40 -30 149 -39 88 -74
253 -61 287 5 14 15 -2 39 -62 64 -158 110 -214 177 -214 43 0 80 23 199 122
45 37 81 65 81 62 0 -4 -16 -50 -36 -103 -92 -242 -154 -614 -154 -914 0 -101
2 -109 25 -132 35 -36 94 -34 135 3 l30 27 10 185 c15 267 55 507 116 701 14
46 69 185 121 309 276 656 385 980 527 1560 108 439 185 870 296 1650 39 272
77 533 85 580 81 470 127 1159 106 1577 -21 408 -59 696 -151 1170 -87 441
-129 714 -180 1181 -53 488 -98 723 -200 1037 -60 185 -93 262 -261 605 -163
336 -224 498 -261 699 -18 97 -22 158 -23 375 l-2 259 -27 24 c-37 31 -95 31
-132 0 -35 -30 -43 -80 -43 -277 -1 -264 48 -565 122 -748 l25 -63 -18 -78
c-62 -260 -165 -423 -406 -646 -169 -156 -353 -342 -384 -388 -14 -20 -27 -37
-30 -37 -3 0 -2 120 2 267 7 246 10 276 34 362 72 258 144 361 416 595 81 69
159 142 174 161 44 58 30 111 -38 134 -28 10 -33 7 -81 -42 -29 -28 -99 -92
-157 -141 -145 -124 -240 -221 -293 -301 l-45 -67 -4 83 c-3 46 -5 256 -6 466
-2 210 -5 390 -9 400 -11 32 -46 63 -78 69 -33 6 -86 -14 -102 -38 -4 -7 -8
-429 -8 -938 0 -1001 0 -1005 -60 -1475 -66 -517 -154 -845 -370 -1380 -183
-453 -293 -676 -436 -890 -224 -333 -491 -517 -690 -476 -241 50 -496 315
-708 732 -85 170 -112 230 -212 491 -135 351 -282 859 -328 1138 -68 410 -85
945 -51 1610 36 697 47 1010 41 1148 -2 38 -53 82 -96 82 -94 0 -105 -31 -106
-302 -1 -117 -4 -258 -8 -313 l-6 -100 -32 61 c-45 87 -135 202 -255 325 -108
112 -160 151 -187 142 -33 -12 -61 -47 -61 -77 0 -25 17 -46 98 -125 208 -203
330 -397 394 -630 20 -72 20 -82 7 -467 l-13 -394 -47 89 c-57 110 -114 190
-248 351 -57 69 -126 159 -154 200 -98 149 -179 348 -222 542 l-17 78 31 122
c50 199 63 303 63 517 l1 194 -32 29 c-42 37 -101 39 -136 3z m0 -1201 c24
-89 130 -302 198 -396 30 -42 107 -139 170 -215 184 -222 247 -328 322 -543
38 -110 88 -290 82 -297 -2 -2 -38 43 -80 99 -77 105 -206 238 -401 414 -60
55 -143 140 -183 189 -126 155 -242 420 -243 555 0 33 97 260 111 260 3 0 14
-30 24 -66z m5053 -269 c41 -84 72 -158 72 -175 0 -77 -63 -209 -149 -309 -44
-52 -268 -251 -282 -251 -4 0 8 43 27 95 36 102 71 232 103 391 15 74 35 132
76 215 30 63 58 129 61 147 3 17 9 32 13 32 3 0 39 -65 79 -145z m-5269 -222
c83 -233 225 -419 496 -651 189 -163 289 -284 404 -489 96 -173 148 -301 191
-475 66 -260 115 -434 185 -645 35 -109 63 -198 62 -199 -1 -1 -63 82 -138
185 -174 238 -328 468 -464 696 -135 224 -234 368 -322 466 -66 74 -195 199
-206 199 -2 0 -8 -30 -12 -67 -10 -104 -60 -392 -100 -585 -99 -471 -234 -920
-422 -1398 -269 -686 -350 -953 -417 -1370 -34 -208 -85 -680 -86 -779 0 -56
-11 -2 -44 229 -69 481 -80 624 -80 1045 -1 243 4 427 12 510 37 365 84 668
124 787 54 167 151 368 348 723 157 284 197 364 254 505 78 192 101 285 121
500 l13 145 -56 85 c-30 46 -64 105 -75 131 l-20 47 32 102 c36 114 150 390
161 390 4 0 21 -39 39 -87z m5526 -398 c29 -93 56 -177 59 -186 5 -11 -17 -37
-75 -89 l-82 -74 6 -146 c12 -316 69 -533 327 -1260 90 -252 123 -387 180
-733 100 -606 115 -1265 41 -1827 l-7 -55 -23 100 c-38 168 -104 382 -246 800
-269 790 -430 1397 -494 1856 -43 309 -71 663 -71 893 l0 150 -36 -35 c-67
-63 -240 -295 -325 -434 -303 -496 -474 -708 -854 -1066 -115 -108 -212 -196
-214 -193 -2 2 1 9 6 16 16 22 158 381 234 593 70 197 73 203 192 385 364 559
635 882 980 1169 158 132 231 211 273 294 40 80 45 83 61 45 8 -18 38 -109 68
-203z m-705 109 c-12 -42 -41 -124 -64 -183 -86 -213 -154 -327 -352 -592 -60
-80 -143 -196 -184 -257 -70 -105 -98 -135 -86 -94 2 9 14 80 26 157 42 277
48 300 88 393 62 143 136 254 242 362 144 146 344 322 348 305 2 -8 -6 -49
-18 -91z m-5053 -494 c-12 -189 -57 -363 -148 -563 -46 -101 -220 -419 -226
-413 -1 1 25 83 59 182 94 275 124 378 193 654 35 140 67 270 70 289 l7 33 25
-42 c24 -40 26 -48 20 -140z m5867 -81 c15 -102 72 -585 81 -684 l5 -50 -21
55 c-29 79 -86 300 -104 405 -9 50 -18 145 -22 213 -6 119 -5 123 17 147 13
14 25 23 27 22 2 -2 10 -51 17 -108z m-5189 -629 c73 -117 85 -144 96 -205 6
-38 35 -153 64 -255 125 -434 264 -783 570 -1440 310 -664 430 -976 549 -1424
176 -658 310 -1621 361 -2586 23 -444 16 -790 -21 -990 -19 -102 -70 -238
-130 -340 -50 -86 -153 -221 -172 -228 -20 -6 -142 123 -180 190 -79 138 -88
206 -102 813 -14 587 -33 862 -86 1205 -89 578 -224 1069 -525 1906 -353 982
-472 1428 -543 2029 -50 427 -46 1065 10 1445 5 33 9 41 16 30 5 -8 47 -76 93
-150z m4382 -393 c-44 -1007 -199 -1747 -584 -2787 -254 -684 -296 -801 -367
-1018 -271 -824 -366 -1365 -381 -2152 -14 -732 -19 -812 -59 -941 -32 -103
-131 -247 -202 -294 l-28 -18 -48 54 c-183 206 -292 432 -319 664 -31 254 -9
861 51 1468 100 999 158 1296 361 1853 138 380 275 642 724 1389 264 440 346
591 486 897 137 298 222 541 292 833 31 130 58 205 74 205 3 0 3 -69 0 -153z
m-3881 -372 c58 -84 289 -388 435 -572 198 -251 256 -328 299 -403 56 -97 167
-263 214 -320 66 -80 179 -191 247 -241 l66 -49 21 -98 c60 -273 83 -497 89
-898 6 -374 -2 -543 -43 -864 -31 -244 -79 -530 -87 -510 -3 8 -17 103 -32
210 -118 856 -259 1423 -513 2055 -45 111 -135 312 -297 660 -188 403 -349
784 -430 1015 -13 36 -26 74 -30 85 -11 29 4 11 61 -70z m3520 7 c-2 -4 -32
-76 -65 -160 -160 -404 -300 -668 -740 -1395 -195 -323 -284 -483 -401 -723
-95 -195 -215 -489 -275 -674 -69 -214 -167 -646 -206 -908 -7 -45 -16 -79
-20 -75 -4 5 -16 95 -28 200 -81 729 -35 1524 114 1998 19 60 38 115 42 120 5
6 38 32 74 58 147 103 263 231 414 457 114 170 148 206 560 594 171 161 357
343 415 404 58 61 109 111 113 112 5 0 6 -3 3 -8z m-4806 -1468 c-24 -444 -7
-1135 40 -1629 82 -856 260 -1632 605 -2628 101 -291 119 -371 120 -507 0 -95
-4 -127 -23 -182 -13 -37 -31 -77 -41 -89 -17 -22 -18 -22 -151 107 -141 136
-260 277 -345 409 -54 82 -81 156 -190 510 -224 727 -340 1559 -320 2285 21
727 95 1234 259 1762 25 81 46 151 46 154 0 4 2 5 5 2 3 -3 1 -90 -5 -194z
m2911 -234 c72 0 80 -2 75 -17 -42 -138 -102 -447 -113 -585 -7 -89 -23 -105
-23 -24 0 68 -26 330 -46 461 -8 55 -17 119 -21 143 l-6 43 27 -11 c15 -5 63
-10 107 -10z m3154 -645 c115 -438 169 -846 135 -1025 -5 -28 -33 -206 -60
-394 -84 -568 -151 -937 -236 -1301 -108 -462 -221 -838 -338 -1124 -66 -161
-79 -183 -157 -269 -95 -105 -352 -343 -360 -334 -4 4 -22 52 -39 107 -28 85
-33 116 -34 205 -1 95 2 115 33 205 19 55 61 161 94 235 358 810 553 1356 707
1985 137 560 194 1027 195 1592 0 189 3 330 8 315 4 -15 27 -103 52 -197z"/>
<path d="M8155 12560 c4 -131 27 -325 46 -385 8 -27 8 -26 4 10 -7 61 -34 308
-44 415 -10 95 -10 95 -6 -40z"/>
<path d="M12553 5823 c-62 -85 -174 -266 -150 -243 5 5 152 227 171 258 13 22
0 12 -21 -15z"/>
<path d="M10251 16053 c-21 -18 -21 -19 -6 -166 25 -260 26 -267 50 -295 22
-25 23 -26 49 -9 24 16 26 23 26 90 0 39 -5 137 -10 217 -9 128 -13 147 -31
163 -12 9 -29 17 -39 17 -10 0 -27 -8 -39 -17z"/>
<path d="M9472 15929 c-101 -9 -214 -32 -305 -61 -94 -29 -101 -42 -106 -186
-4 -126 6 -152 59 -152 53 0 65 20 69 120 4 106 -6 98 151 132 65 14 148 22
265 25 188 5 215 13 215 61 0 15 -4 33 -9 41 -18 28 -170 37 -339 20z"/>
<path d="M10918 15923 c-30 -5 -58 -37 -58 -65 0 -10 9 -27 20 -38 18 -18 33
-20 141 -20 140 0 300 -21 403 -53 l71 -23 3 -89 c2 -65 7 -94 19 -107 24 -26
58 -22 83 10 21 25 22 35 17 133 -2 58 -10 116 -17 128 -19 37 -144 80 -305
106 -95 15 -331 27 -377 18z"/>
<path d="M10257 15225 c-68 -70 -99 -172 -77 -253 12 -47 67 -115 111 -138 67
-34 147 -3 179 69 34 75 20 159 -41 241 -16 23 -40 57 -52 76 -33 51 -74 53
-120 5z m97 -185 c29 -54 28 -90 -4 -90 -24 0 -60 46 -60 77 0 27 16 63 29 63
4 0 20 -23 35 -50z"/>
<path d="M9260 15121 c-137 -29 -169 -40 -186 -65 -25 -39 -41 -555 -26 -849
20 -392 76 -801 163 -1191 42 -185 160 -599 185 -648 17 -32 53 -45 83 -29 42
23 41 38 -15 226 -132 434 -217 849 -265 1295 -23 208 -36 825 -22 1010 l8
105 85 17 c159 32 351 33 475 2 28 -7 75 33 75 65 0 56 -61 72 -290 77 -152 3
-200 0 -270 -15z"/>
<path d="M11010 15125 c-8 -2 -37 -7 -63 -10 -78 -10 -108 -57 -69 -105 18
-23 18 -23 153 -10 146 14 279 5 404 -26 l65 -16 0 -187 c0 -435 -50 -894
-151 -1376 -70 -337 -119 -513 -265 -962 -16 -47 -16 -53 -1 -76 19 -30 48
-38 79 -23 29 14 57 83 131 321 152 487 259 1008 302 1476 17 185 32 789 21
863 -7 45 -10 49 -51 67 -101 45 -193 61 -370 64 -93 2 -177 2 -185 0z"/>
<path d="M11981 6524 c0 -11 3 -14 6 -6 3 7 2 16 -1 19 -3 4 -6 -2 -5 -13z"/>
<path d="M11971 6484 c0 -11 3 -14 6 -6 3 7 2 16 -1 19 -3 4 -6 -2 -5 -13z"/>
<path d="M11622 6095 c0 -16 2 -22 5 -12 2 9 2 23 0 30 -3 6 -5 -1 -5 -18z"/>
<path d="M11637 5975 c3 -49 7 -92 9 -94 7 -8 3 94 -6 139 -6 32 -7 18 -3 -45z"/>
<path d="M8454 5206 c-259 -49 -344 -149 -284 -332 48 -144 151 -365 193 -411
47 -52 157 -9 157 61 0 20 -21 74 -54 137 -30 57 -70 148 -91 203 -43 116 -44
115 75 143 105 25 378 24 469 -1 84 -23 149 -56 186 -96 27 -29 30 -37 28 -96
-1 -39 -13 -105 -34 -171 -29 -96 -31 -109 -18 -131 37 -65 97 -77 143 -27 35
37 87 215 93 317 8 120 -6 166 -74 238 -62 67 -154 117 -278 150 -103 28 -400
37 -511 16z"/>
<path d="M11520 5064 c-236 -42 -374 -116 -433 -229 -31 -61 -34 -176 -8 -305
27 -133 42 -155 106 -155 41 0 51 4 68 28 21 27 21 28 4 110 -9 45 -17 112
-17 149 0 61 3 71 31 102 111 127 516 159 742 59 66 -30 81 -50 72 -96 -10
-45 -67 -167 -104 -221 -17 -25 -34 -58 -37 -73 -7 -41 26 -89 71 -102 64 -17
96 6 164 124 51 87 97 204 106 271 14 108 -36 194 -150 255 -110 60 -218 82
-420 85 -93 1 -181 0 -195 -2z"/>
</g>
</svg>
