<?xml version="1.0" standalone="no"?>
<!DOCTYPE svg PUBLIC "-//W3C//DTD SVG 20010904//EN"
 "http://www.w3.org/TR/2001/REC-SVG-20010904/DTD/svg10.dtd">
<svg version="1.0" xmlns="http://www.w3.org/2000/svg"
 width="2048.000000pt" height="2048.000000pt" viewBox="0 0 2048.000000 2048.000000"
 preserveAspectRatio="xMidYMid meet">

<g transform="translate(0.000000,2048.000000) scale(0.100000,-0.100000)"
fill="#000000" stroke="none">
<path d="M10412 19120 c-34 -14 -47 -56 -76 -245 -45 -295 -76 -603 -97 -960
-13 -226 -7 -854 10 -1055 31 -353 80 -684 132 -889 26 -106 29 -131 29 -286
0 -284 26 -624 64 -840 7 -44 12 -81 11 -83 -5 -6 -104 136 -138 198 -72 131
-100 248 -242 1015 -213 1149 -343 2024 -402 2699 -19 223 -24 236 -88 236
-51 0 -75 -28 -75 -87 0 -147 74 -809 146 -1313 62 -435 305 -1813 389 -2205
94 -438 212 -618 580 -884 110 -80 174 -134 212 -180 65 -79 147 -191 142
-195 -2 -1 -52 -35 -110 -74 -59 -40 -128 -92 -155 -117 -26 -25 -57 -48 -67
-51 -29 -9 -325 -307 -381 -384 -27 -36 -52 -65 -56 -65 -19 0 -262 248 -299
305 -23 35 -54 104 -70 154 -38 121 -117 433 -186 740 -31 138 -58 253 -60
256 -2 3 -45 190 -95 415 -280 1255 -384 1865 -432 2530 -16 220 -15 794 1
965 11 117 10 126 -7 150 -25 33 -83 39 -110 12 -23 -23 -27 -57 -43 -342 -20
-353 3 -885 57 -1330 21 -174 63 -452 80 -533 26 -124 18 -110 -86 163 -327
853 -436 1224 -570 1935 -56 296 -60 305 -126 305 -42 0 -74 -30 -74 -69 0
-79 115 -640 205 -1002 36 -141 89 -368 120 -505 31 -136 109 -476 175 -754
143 -606 161 -690 199 -913 101 -581 78 -986 -118 -2094 -66 -371 -71 -395
-127 -543 -324 -869 -483 -1550 -526 -2247 -23 -388 30 -855 142 -1238 88
-300 238 -643 385 -880 82 -132 68 -63 220 -1050 229 -1494 296 -2045 311
-2590 16 -587 -53 -998 -245 -1442 -135 -312 -215 -558 -242 -738 -18 -123
-13 -353 10 -463 27 -128 91 -257 171 -344 146 -159 353 -250 670 -295 166
-23 639 -23 935 0 351 27 413 29 610 18 444 -26 664 -85 1156 -310 428 -195
608 -249 871 -258 207 -7 367 12 562 69 68 19 68 19 90 0 11 -11 45 -32 73
-46 161 -81 387 -71 502 22 26 21 56 33 106 41 87 15 147 41 194 84 32 29 45
34 94 36 105 4 231 63 298 139 125 143 142 482 28 565 -22 16 -59 22 -200 33
-226 17 -364 38 -524 79 -250 64 -549 190 -694 292 -274 194 -555 423 -996
812 -154 136 -327 287 -385 336 -341 289 -520 456 -587 545 -191 252 -331 823
-374 1515 -13 213 -7 812 11 1065 36 512 78 935 165 1635 57 456 121 1010 180
1555 46 426 112 1152 165 1830 l29 375 45 148 c53 172 171 521 319 937 148
417 202 616 232 863 9 70 31 184 50 253 48 176 66 307 66 499 0 193 -10 277
-62 565 -22 118 -44 266 -51 329 -18 184 -8 236 155 771 215 708 367 1414 447
2075 11 94 23 192 26 218 11 85 -33 138 -100 121 -41 -10 -53 -39 -66 -159
-22 -209 -82 -625 -116 -800 -8 -44 -44 -215 -80 -380 -92 -430 -191 -807
-354 -1345 -46 -151 -78 -187 -320 -370 -47 -35 -124 -94 -171 -132 -48 -37
-89 -68 -92 -68 -3 0 17 51 45 113 141 315 300 774 372 1077 137 573 193 1155
167 1722 -12 274 -19 321 -51 338 -31 17 -79 11 -100 -10 -20 -20 -20 -28 -13
-138 12 -182 9 -840 -5 -987 -30 -310 -114 -785 -182 -1030 -113 -404 -348
-1000 -525 -1330 -23 -44 -93 -174 -155 -290 -62 -115 -144 -264 -183 -330
-96 -165 -321 -525 -328 -525 -3 0 -40 23 -82 51 -76 50 -77 52 -97 118 -27
92 -56 236 -74 372 -16 119 -39 469 -32 477 3 2 18 -23 35 -55 48 -96 148
-238 175 -251 45 -20 106 21 106 71 0 10 -36 73 -80 139 -169 252 -262 503
-324 874 -119 703 -123 1546 -11 2402 13 103 31 223 40 267 22 115 20 140 -11
164 -29 23 -46 25 -82 11z m-1370 -2814 c205 -498 200 -482 277 -836 40 -179
85 -383 102 -455 l31 -130 -221 -444 c-121 -244 -221 -437 -221 -429 0 8 11
79 24 159 99 586 123 1145 65 1549 -27 187 -120 638 -175 845 -13 51 24 -32
118 -259z m3337 -721 c55 -334 65 -433 57 -610 -7 -188 -57 -447 -89 -467 -7
-4 -48 -8 -93 -8 -193 0 -417 102 -579 264 -100 100 -118 137 -123 256 -7 165
45 326 158 496 94 139 224 261 536 502 l69 53 12 -123 c6 -68 30 -231 52 -363z
m-1000 -764 c-33 -96 -71 -242 -91 -351 -8 -49 -13 -160 -13 -318 0 -167 -3
-238 -10 -226 -82 140 -178 278 -289 419 l-19 24 70 108 c115 177 311 498 340
559 l28 56 6 -93 c6 -87 5 -100 -22 -178z m318 -283 c67 -49 203 -119 289
-148 80 -28 206 -50 281 -50 l64 0 -6 -37 c-44 -255 -96 -440 -232 -821 -58
-163 -147 -421 -198 -572 -51 -151 -95 -268 -98 -260 -3 8 -22 70 -42 138 -44
150 -81 253 -195 542 -78 200 -90 240 -110 360 -36 227 -46 400 -31 573 12
151 36 293 67 396 l16 54 66 -65 c37 -36 95 -86 129 -110z m-2130 -148 c20
-80 36 -149 35 -155 0 -5 -5 -50 -11 -99 -9 -65 -9 -124 -1 -221 19 -241 57
-417 190 -870 143 -487 214 -804 275 -1220 73 -502 83 -996 29 -1475 -42 -377
-122 -678 -253 -945 -167 -341 -368 -540 -599 -595 -107 -25 -330 -3 -374 37
-29 26 -153 239 -209 359 -312 666 -410 1339 -308 2119 59 456 167 909 333
1401 182 540 353 950 669 1603 l162 335 13 -65 c8 -35 30 -129 49 -209z m1596
-587 c217 -385 394 -834 505 -1279 l50 -199 -14 -180 c-71 -908 -136 -1637
-189 -2115 -77 -686 -128 -1119 -165 -1415 -59 -466 -117 -999 -140 -1285 -42
-538 -45 -603 -44 -1018 0 -417 -1 -423 -21 -427 -40 -8 -217 -27 -220 -23 -2
2 -15 253 -29 558 -14 305 -28 611 -31 680 -9 192 -53 968 -75 1325 -33 528
-138 1795 -181 2185 -88 806 -203 1661 -307 2298 -16 94 -26 172 -23 172 8 -1
120 -152 176 -238 26 -41 69 -122 96 -180 86 -186 92 -196 122 -206 22 -8 33
-6 55 11 50 37 49 58 -2 179 -78 184 -204 388 -327 529 -27 31 -49 62 -49 68
0 7 43 62 95 122 53 61 108 127 123 147 15 21 32 37 38 38 6 0 47 38 92 84 45
46 83 81 86 79 2 -2 25 13 52 34 63 48 246 173 254 173 3 0 36 -53 73 -117z
m-1340 -240 c32 -53 152 -178 235 -245 17 -15 32 -35 32 -45 0 -10 16 -111 35
-223 155 -913 301 -2080 400 -3190 76 -859 157 -2119 215 -3340 11 -234 22
-482 26 -552 5 -103 4 -129 -7 -132 -17 -5 -334 -55 -335 -53 -1 1 36 205 82
452 46 248 84 465 84 483 0 42 -30 72 -73 72 -62 0 -62 -1 -122 -335 -105
-585 -186 -993 -315 -1575 -32 -146 -75 -350 -96 -454 -36 -186 -36 -191 -25
-290 37 -305 164 -743 298 -1027 l54 -116 -35 -65 c-58 -105 -79 -200 -78
-358 0 -146 12 -219 62 -382 17 -54 33 -104 36 -113 9 -21 -23 -19 -35 3 -5 9
-32 80 -61 156 -83 225 -130 435 -106 475 4 6 11 49 16 95 19 162 -14 322
-175 866 -141 475 -147 498 -147 620 0 116 16 198 138 683 200 798 325 1571
378 2323 56 800 36 2423 -39 3154 -11 107 -12 162 -3 265 14 168 4 654 -17
844 -61 548 -141 926 -330 1551 -35 115 -101 369 -129 493 -6 27 -2 21 37 -40z
m356 -4493 c25 -1032 2 -1700 -80 -2365 -34 -274 -140 -920 -154 -933 -3 -3
-5 28 -5 69 0 91 -24 436 -45 659 -29 315 -57 517 -148 1082 -24 147 -24 148
-6 252 43 257 161 811 328 1547 22 97 49 225 60 283 12 59 22 110 22 114 6 25
19 -320 28 -708z m-398 -301 c-240 -1099 -290 -1451 -307 -2193 -6 -244 9
-925 22 -967 5 -17 -4 -20 -107 -34 l-45 -7 -12 149 c-44 539 -175 1473 -409
2906 l-6 38 54 -8 c30 -4 104 -8 164 -7 128 1 219 26 345 97 94 52 265 221
330 324 25 39 46 70 48 68 1 -1 -33 -166 -77 -366z m-87 -1804 c64 -505 95
-942 112 -1561 l6 -240 -46 -190 c-25 -104 -57 -234 -71 -289 l-24 -100 7 90
c13 164 5 514 -17 770 -37 436 -46 796 -32 1218 16 468 21 560 32 527 4 -14
19 -115 33 -225z m1486 -1232 c1 -5 7 -64 14 -133 8 -69 13 -126 11 -128 -1
-1 -125 -16 -276 -33 -150 -17 -343 -41 -429 -53 -85 -13 -156 -22 -158 -20
-2 1 6 49 17 106 11 56 21 114 23 128 3 23 9 26 103 42 119 20 596 88 683 97
6 0 12 -2 12 -6z m-1660 -505 c17 -281 9 -659 -18 -808 -32 -172 -114 -440
-187 -603 l-25 -58 -38 29 c-70 56 -75 65 -58 105 22 54 73 239 95 347 53 258
83 670 73 1013 l-4 167 38 1 c22 1 53 5 69 8 17 4 33 5 37 2 3 -3 12 -95 18
-203z m1719 15 c21 -137 80 -388 117 -498 19 -59 34 -108 32 -109 -2 -1 -25
-11 -53 -21 -275 -101 -381 -392 -244 -673 l31 -63 -64 -69 c-137 -150 -516
-569 -572 -633 -33 -37 -63 -64 -67 -60 -15 15 -100 216 -140 331 -37 109
-122 403 -116 407 1 1 31 8 67 14 254 49 518 248 631 476 73 148 74 261 2 398
-85 162 -297 304 -521 348 -48 9 -62 15 -58 26 4 8 9 32 12 52 l6 38 195 27
c108 14 288 38 402 51 113 13 220 26 236 28 17 2 44 5 61 6 l31 1 12 -77z
m-893 -304 c233 -60 402 -207 421 -366 17 -144 -116 -335 -319 -459 -70 -43
-198 -91 -266 -100 -57 -7 -55 -11 -72 96 -19 124 -11 182 95 650 20 85 38
165 40 178 6 27 3 27 101 1z m1133 -507 c16 -32 46 -80 65 -105 20 -26 36 -51
36 -55 0 -4 -24 -20 -53 -36 -80 -45 -145 -94 -224 -170 l-73 -69 -22 49 c-19
40 -23 66 -23 139 0 78 4 97 27 141 15 29 46 68 69 88 38 32 125 74 156 75 7
1 26 -25 42 -57z m-1874 -501 c-86 -339 -98 -381 -104 -381 -4 0 -29 22 -56
50 l-48 49 47 102 c54 116 132 340 167 479 l24 95 7 -109 c7 -108 7 -112 -37
-285z m2169 132 c48 -46 83 -83 77 -83 -17 0 -175 -123 -267 -207 -135 -125
-733 -783 -862 -950 -108 -139 -131 -359 -65 -620 l29 -112 -61 -5 c-33 -3
-85 -7 -115 -8 l-55 -3 -28 80 c-81 229 -104 464 -59 611 26 86 64 139 237
329 70 77 220 244 333 370 309 344 472 515 540 565 65 47 193 121 203 117 4
-1 46 -39 93 -84z m295 -255 c47 -40 271 -255 496 -478 702 -695 801 -771
1146 -889 150 -51 301 -110 284 -111 -5 0 -46 9 -91 20 -45 10 -126 26 -180
35 -54 8 -121 20 -149 27 -109 25 -281 120 -400 221 -66 56 -424 400 -794 763
-130 127 -287 279 -348 339 -62 60 -113 112 -113 115 0 7 39 28 54 29 5 1 47
-32 95 -71z m-2265 -204 c79 -256 153 -556 161 -644 4 -54 3 -71 -5 -60 -6 8
-50 78 -98 155 -48 77 -122 186 -165 242 -42 56 -77 107 -77 114 0 6 20 84 44
173 25 89 50 181 57 206 11 42 12 43 20 20 4 -14 32 -107 63 -206z m3006 -834
c323 -305 390 -358 560 -442 52 -26 88 -48 79 -48 -38 0 -224 42 -287 66 -37
13 -92 44 -123 67 -31 23 -339 322 -684 665 l-629 622 34 35 34 35 420 -418
c232 -229 500 -492 596 -582z m-3558 813 c241 -236 401 -450 609 -816 56 -97
79 -148 79 -172 0 -51 54 -248 105 -387 25 -67 49 -132 52 -142 6 -19 0 -19
-208 -13 -466 14 -709 86 -863 258 -170 189 -208 535 -100 899 34 115 184 490
196 490 5 0 64 -53 130 -117z m2763 -377 c588 -593 872 -867 960 -926 112 -76
172 -97 432 -150 373 -78 582 -146 700 -230 124 -87 183 -174 183 -273 0 -31
-5 -67 -11 -81 -18 -39 -81 -61 -174 -61 -69 0 -89 4 -145 31 -36 17 -87 49
-113 72 -61 53 -115 85 -200 117 -104 39 -154 32 -172 -26 -10 -30 13 -76 43
-87 15 -6 36 -13 47 -18 16 -5 8 -10 -35 -20 -99 -24 -199 -34 -333 -34 -244
0 -391 41 -782 215 -286 128 -468 200 -630 250 -66 20 -275 88 -465 150 -190
62 -387 123 -437 136 -93 22 -93 22 -100 58 -5 20 -8 92 -8 161 0 106 3 132
21 170 29 62 103 150 126 150 11 0 83 -16 161 -36 453 -113 987 -314 1537
-579 240 -116 406 -183 471 -192 28 -4 42 0 58 16 24 24 28 78 9 104 -7 9 -69
35 -137 57 -68 22 -144 52 -168 66 -53 31 -194 158 -568 513 -301 286 -718
682 -749 712 -19 18 -18 19 28 73 26 31 50 56 54 56 3 0 182 -177 397 -394z
m-550 133 c22 -23 164 -159 315 -302 331 -314 571 -547 563 -547 -4 0 -77 29
-162 64 -383 159 -839 311 -1134 380 -16 4 -27 11 -25 16 4 12 391 429 398
430 3 0 24 -18 45 -41z m2353 -1115 c192 -39 411 -118 544 -197 100 -59 163
-119 198 -188 27 -52 36 -144 18 -178 -14 -25 -63 -54 -110 -65 -28 -6 -28 -6
-28 42 0 100 -61 225 -157 318 -90 88 -259 171 -463 228 -69 19 -147 42 -175
50 l-50 15 75 -5 c41 -3 108 -12 148 -20z m580 0 c47 -13 63 -30 46 -47 -6 -6
-133 48 -149 64 -11 11 14 7 103 -17z m345 -77 c-36 -7 -70 -7 -105 0 -50 10
-47 10 52 10 99 0 102 0 53 -10z m-3794 -53 c3 -4 -5 -4 -19 -1 -14 4 -40 7
-57 7 -22 0 -33 5 -33 14 0 12 7 12 51 1 28 -8 54 -17 58 -21z m4065 -60 c-2
-144 -69 -248 -187 -293 -88 -32 -97 -30 -97 27 -1 57 -35 146 -79 201 l-33
41 64 0 c86 0 192 24 258 58 30 16 60 28 65 27 6 -1 10 -29 9 -61z"/>
</g>
</svg>
