<?xml version="1.0" standalone="no"?>
<!DOCTYPE svg PUBLIC "-//W3C//DTD SVG 20010904//EN"
 "http://www.w3.org/TR/2001/REC-SVG-20010904/DTD/svg10.dtd">
<svg version="1.0" xmlns="http://www.w3.org/2000/svg"
 width="2048.000000pt" height="2048.000000pt" viewBox="0 0 2048.000000 2048.000000"
 preserveAspectRatio="xMidYMid meet">

<g transform="translate(0.000000,2048.000000) scale(0.100000,-0.100000)"
fill="#000000" stroke="none">
<path d="M12762 14905 c-28 -12 -40 -30 -81 -117 -95 -204 -223 -383 -382
-533 -172 -163 -275 -211 -1059 -498 -157 -58 -411 -153 -565 -212 -642 -246
-1091 -367 -1600 -430 -361 -45 -656 -130 -939 -271 -807 -404 -1400 -1217
-1741 -2389 -190 -655 -287 -1563 -255 -2380 l11 -290 -41 -90 c-163 -351
-303 -806 -370 -1203 -39 -224 -39 -255 -1 -293 23 -23 38 -29 71 -29 56 0 86
31 94 96 46 365 171 828 321 1194 45 107 64 140 79 134 8 -3 31 -1 51 5 47 13
335 185 485 290 63 44 116 79 117 77 2 -2 -30 -72 -71 -157 -162 -337 -301
-653 -432 -986 -155 -392 -314 -864 -314 -932 0 -42 45 -90 91 -97 30 -5 41
-2 67 22 24 23 37 52 62 144 132 473 469 1292 809 1966 l161 319 112 85 c62
47 189 145 283 219 300 237 347 273 351 268 5 -5 -28 -82 -139 -327 -241 -535
-390 -865 -469 -1045 -22 -49 -68 -153 -103 -230 -35 -77 -97 -216 -138 -310
-41 -93 -137 -309 -212 -480 -244 -550 -318 -729 -319 -764 0 -46 49 -91 100
-91 52 0 83 37 134 160 42 102 182 423 340 780 91 206 164 369 490 1095 133
297 280 623 325 725 367 819 322 733 419 797 128 85 307 149 495 178 l44 7 -7
-63 c-15 -134 -130 -668 -203 -939 -219 -819 -547 -1690 -869 -2306 -94 -180
-102 -217 -60 -259 36 -36 73 -42 115 -19 31 17 50 49 171 289 395 786 739
1765 944 2695 30 135 62 292 72 350 9 58 18 106 19 108 1 1 25 -36 53 -83 40
-66 54 -102 62 -153 84 -537 224 -1200 360 -1702 183 -681 300 -1049 468
-1472 19 -46 48 -68 91 -68 32 0 54 12 137 73 373 278 841 438 1574 542 646
90 1019 185 1380 350 238 108 432 238 590 395 209 207 325 401 405 681 131
451 136 951 25 2169 -48 523 -83 730 -162 958 -127 372 -335 641 -636 823
-158 97 -306 151 -682 254 -786 214 -1473 436 -2395 773 -165 61 -324 120
-353 131 -96 38 -152 23 -173 -49 -10 -33 -9 -43 8 -72 18 -31 39 -40 319
-146 657 -247 1488 -526 1999 -671 61 -18 116 -34 124 -37 15 -5 -48 -44 -889
-552 -1118 -675 -1550 -932 -1564 -932 -4 0 42 64 102 143 346 451 628 1006
733 1442 27 112 25 140 -10 176 -24 23 -38 29 -73 29 -43 0 -45 -2 -278 -227
-129 -124 -345 -328 -480 -452 -134 -124 -308 -285 -385 -357 -222 -207 -1208
-1104 -1505 -1369 -80 -71 -239 -215 -355 -320 -115 -104 -248 -225 -295 -267
l-86 -77 -102 -3 c-80 -2 -102 0 -102 10 0 8 14 55 32 105 161 469 525 1105
912 1592 442 556 1076 1128 1591 1434 126 76 145 95 145 148 0 50 -29 87 -76
99 -36 9 -94 -22 -319 -172 -525 -349 -1085 -872 -1518 -1417 -404 -508 -774
-1164 -942 -1672 -48 -142 -56 -160 -80 -168 -14 -5 -28 -7 -31 -4 -14 14 123
552 190 743 114 326 225 588 370 869 448 873 1086 1595 1774 2009 67 41 82 59
82 103 0 38 -25 72 -67 89 -32 14 -38 13 -86 -9 -65 -30 -279 -173 -400 -269
-435 -341 -840 -784 -1145 -1252 -449 -688 -792 -1528 -915 -2235 l-23 -135
-68 -40 c-37 -22 -99 -71 -139 -108 -39 -37 -72 -66 -73 -65 -1 1 2 81 7 177
44 868 252 1712 585 2370 330 653 766 1111 1309 1375 277 134 526 203 910 250
294 37 555 95 928 206 l237 71 133 -60 c329 -150 857 -362 1112 -447 476 -160
906 -258 1565 -360 430 -66 626 -113 765 -182 168 -84 275 -188 351 -340 40
-81 55 -100 93 -125 91 -57 206 -73 311 -42 111 33 154 121 91 185 -33 33 -79
38 -121 14 -36 -21 -109 -19 -147 5 -19 11 -43 41 -59 72 -86 171 -217 301
-395 392 l-75 39 -42 157 c-67 249 -342 1370 -432 1760 -45 195 -88 364 -95
376 -18 28 -68 48 -101 40 -14 -4 -37 -19 -51 -34 -22 -24 -25 -33 -20 -82 5
-49 68 -328 218 -955 27 -115 104 -427 170 -693 67 -266 119 -485 117 -488 -3
-2 -46 5 -97 16 -51 11 -190 36 -309 55 -119 19 -231 37 -249 40 l-32 6 30 87
c33 99 128 299 196 416 l46 78 -23 52 c-103 233 -193 622 -330 1431 -21 129
-45 243 -52 254 -24 39 -81 55 -126 36z m17 -502 c7 -49 18 -119 26 -157 l14
-68 -66 -87 c-200 -258 -534 -600 -858 -876 -118 -101 -325 -268 -356 -288
-23 -14 -36 -10 -279 88 -140 56 -334 137 -430 180 -96 42 -187 81 -202 87
-16 5 -28 13 -28 17 0 11 564 226 1020 388 235 84 446 169 524 213 208 114
409 302 566 528 23 34 46 62 50 62 4 0 12 -39 19 -87z m126 -676 l36 -169 -57
-64 c-115 -131 -313 -331 -459 -462 -82 -74 -189 -170 -237 -214 l-88 -79
-167 46 c-93 26 -172 48 -177 49 -5 1 13 20 40 41 341 273 759 670 974 923 52
62 96 109 97 105 1 -4 18 -84 38 -176z m129 -497 l28 -91 -36 -67 c-62 -113
-121 -243 -167 -366 l-44 -117 -40 5 c-74 9 -435 81 -434 86 0 3 64 62 143
132 78 70 225 213 326 317 102 104 187 189 190 190 3 0 19 -40 34 -89z m-89
-1515 c367 -96 568 -197 748 -378 76 -76 207 -252 207 -278 0 -5 -13 -9 -28
-9 -117 0 -1296 -228 -2042 -394 -620 -138 -1440 -333 -1569 -372 -76 -23 -79
-16 -11 24 36 21 259 156 495 299 404 244 637 386 1255 761 253 155 608 365
664 394 33 17 43 16 281 -47z m-2429 -2 c-86 -242 -288 -623 -469 -883 -187
-269 -351 -462 -584 -690 -486 -478 -959 -787 -1417 -925 -119 -35 -365 -90
-373 -82 -2 3 112 110 254 238 142 128 310 281 373 339 109 99 216 196 575
520 82 74 206 187 275 250 69 64 194 178 279 255 176 161 235 215 618 566 153
141 323 299 378 352 55 53 101 96 102 97 1 0 -4 -17 -11 -37z m3487 -860 c2
-10 21 -72 41 -138 47 -151 79 -340 111 -647 33 -315 34 -292 -12 -284 -87 14
-510 68 -793 101 -168 19 -359 42 -425 50 -452 55 -1566 156 -2010 181 -66 4
-127 8 -135 10 -8 1 -73 3 -145 4 -76 0 -124 4 -115 9 35 20 911 230 1446 347
410 89 1085 224 1474 293 217 39 418 75 445 80 82 15 112 13 118 -6z m-3283
-924 c573 -28 1724 -133 2630 -239 341 -40 840 -106 846 -112 1 -2 7 -59 13
-128 6 -69 14 -145 16 -170 19 -182 31 -514 27 -742 l-2 -98 -52 21 c-144 58
-1040 378 -1478 529 -1469 505 -2431 774 -3094 865 l-50 7 105 34 c57 19 124
39 149 44 53 11 593 4 890 -11z m-1295 -254 c335 -18 799 -116 1495 -315 291
-83 374 -108 915 -281 397 -126 908 -299 1291 -438 76 -27 272 -98 434 -156
287 -104 671 -246 679 -251 1 -2 -2 -42 -8 -91 -52 -396 -173 -681 -384 -908
l-65 -70 -104 54 c-56 30 -236 127 -398 216 -162 89 -369 201 -460 250 -91 49
-194 105 -230 125 -36 20 -110 61 -165 90 -55 29 -194 105 -310 168 -431 236
-893 481 -1620 860 -342 178 -835 419 -960 470 -203 82 -378 121 -472 107 -24
-3 -43 -4 -43 -1 0 5 169 135 218 168 14 9 37 15 51 13 14 -2 76 -7 136 -10z
m146 -505 c74 -33 135 -65 137 -70 12 -34 169 -329 240 -450 340 -578 631
-990 1016 -1440 178 -207 590 -611 726 -711 37 -28 38 -39 3 -39 -16 0 -106
-16 -201 -35 -95 -19 -177 -35 -182 -35 -16 0 -138 163 -410 545 -195 275
-512 753 -755 1140 -45 72 -110 175 -145 230 -151 239 -571 925 -566 925 2 0
63 -27 137 -60z m-1611 -184 c0 -8 -323 -257 -895 -690 -306 -231 -696 -489
-713 -471 -4 4 -9 98 -11 210 -3 181 -1 211 18 286 36 139 93 241 186 334 92
92 161 136 277 176 118 40 224 56 458 68 254 14 435 35 565 65 119 28 115 27
115 22z m2128 -70 c42 -24 156 -83 252 -131 249 -124 705 -362 905 -470 94
-50 240 -129 325 -175 85 -45 207 -111 270 -145 63 -34 201 -109 305 -165 105
-56 242 -131 305 -165 250 -137 642 -352 780 -428 80 -43 196 -107 258 -140
61 -33 112 -64 112 -68 0 -10 -116 -82 -234 -144 -284 -151 -679 -267 -1166
-343 l-185 -29 -45 30 c-309 210 -705 603 -1071 1063 -254 320 -534 733 -779
1149 -45 77 -91 155 -102 173 -11 17 -17 32 -13 32 3 0 40 -20 83 -44z m-341
-591 c72 -115 181 -289 243 -385 62 -96 146 -227 185 -290 l73 -115 -8 -60
c-9 -64 -45 -687 -56 -973 -4 -95 -10 -169 -14 -165 -10 11 -107 333 -196 648
-113 402 -206 789 -324 1352 -40 192 -43 210 -36 202 2 -2 62 -98 133 -214z
m745 -1157 c35 -51 100 -144 143 -207 l79 -114 -50 6 c-27 4 -98 14 -158 24
l-108 16 6 86 c3 47 9 130 12 184 4 53 8 97 10 97 1 0 31 -42 66 -92z m95
-507 c98 -17 204 -33 235 -37 l57 -6 82 -117 c46 -64 93 -130 106 -148 l24
-31 -58 -17 c-32 -9 -86 -28 -121 -42 l-62 -24 -69 46 c-94 62 -206 168 -307
291 -46 56 -84 105 -84 108 0 9 5 8 197 -23z m-7 -473 l55 -47 -59 -26 c-33
-14 -90 -46 -128 -70 l-68 -45 0 193 1 192 72 -75 c39 -42 97 -97 127 -122z"/>
<path d="M11392 8995 c-38 -16 -63 -66 -55 -107 10 -51 0 -45 443 -243 107
-48 276 -124 375 -170 99 -45 252 -115 340 -155 171 -78 657 -304 892 -415
135 -63 145 -66 178 -55 43 14 69 51 69 95 0 58 -23 77 -190 155 -88 40 -235
109 -329 153 -240 111 -506 233 -750 344 -115 53 -283 128 -371 169 -248 112
-550 244 -560 244 -5 -1 -24 -7 -42 -15z"/>
<path d="M8631 8933 c-21 -20 -40 -58 -64 -128 -19 -55 -84 -230 -145 -390
-137 -359 -135 -353 -706 -1832 -75 -194 -136 -366 -136 -384 0 -46 47 -89 97
-89 75 0 58 -35 353 730 143 371 252 651 385 995 262 675 375 985 375 1031 0
26 -8 43 -29 65 -40 39 -89 40 -130 2z"/>
</g>
</svg>
